<?xml version="1.0" standalone="no"?>
<!DOCTYPE svg PUBLIC "-//W3C//DTD SVG 20010904//EN"
 "http://www.w3.org/TR/2001/REC-SVG-20010904/DTD/svg10.dtd">
<svg version="1.0" xmlns="http://www.w3.org/2000/svg"
 width="404.000000pt" height="316.000000pt" viewBox="0 0 404.000000 316.000000"
 preserveAspectRatio="xMidYMid meet">

<g transform="translate(0.000000,316.000000) scale(0.100000,-0.100000)"
 fill="#fff"
 stroke="none">
<path  d="M520 1962 c0 -4 170 -177 378 -385 l377 -377 1138 0 1137 0 -2 383
-3 382 -1512 3 c-832 1 -1513 -1 -1513 -6z m868 -208 c17 -5 22 -13 22 -41 0
-30 -3 -34 -17 -27 -10 4 -35 9 -55 12 -82 9 -133 -102 -72 -159 21 -20 35
-24 84 -23 55 1 58 0 63 -25 3 -14 3 -28 0 -31 -2 -3 -40 -5 -83 -5 -84 0
-112 12 -153 66 -51 69 -22 184 55 219 42 19 112 25 156 14z m1342 -39 c0 -32
2 -35 31 -35 27 0 30 -3 27 -27 -2 -22 -9 -29 -30 -31 -26 -3 -28 -7 -28 -45
0 -49 12 -72 37 -72 12 0 19 -9 21 -27 3 -27 1 -28 -41 -28 -69 0 -90 23 -95
104 -4 56 -7 66 -23 66 -30 0 -27 58 4 62 16 2 21 9 19 25 -2 15 4 24 25 31
47 17 53 14 53 -23z m-1122 -63 c3 -28 0 -32 -20 -32 -43 0 -53 -15 -58 -92
l-5 -73 -37 0 c-21 0 -38 3 -38 8 0 4 0 54 0 112 l0 105 35 0 c27 0 35 -4 35
-17 0 -11 3 -14 8 -7 11 17 45 34 62 31 9 -1 16 -15 18 -35z m183 28 c47 -13
79 -49 86 -97 10 -77 -43 -133 -127 -133 -80 0 -130 45 -130 116 0 51 36 99
83 113 43 12 47 12 88 1z m332 -17 c15 -15 19 -14 38 3 27 24 92 25 116 1 15
-14 18 -35 18 -115 l0 -97 -37 -3 -38 -3 0 74 c0 56 -4 78 -16 88 -31 25 -49
-1 -54 -82 l-5 -74 -37 -3 -38 -3 0 66 c0 69 -12 105 -34 105 -26 0 -40 -32
-42 -98 l-3 -67 -38 0 -38 0 -3 113 -3 112 41 0 c31 0 40 -4 40 -17 0 -14 2
-15 18 -1 35 31 80 32 115 1z m411 15 c14 -6 35 -30 46 -54 18 -37 19 -47 9
-88 -19 -76 -90 -110 -147 -70 l-22 15 0 -60 0 -61 -40 0 -40 0 0 160 0 160
41 0 c32 0 40 -3 35 -15 -3 -8 -1 -15 4 -15 6 0 10 4 10 9 0 9 43 29 67 30 7
1 23 -4 37 -11z m448 2 c136 -38 105 -230 -37 -230 -82 0 -135 49 -135 124 0
43 39 92 83 105 43 12 47 12 89 1z m343 -20 c17 -18 20 -34 20 -113 l0 -92
-37 -3 -38 -3 0 66 c0 74 -12 105 -39 105 -30 0 -40 -22 -43 -95 l-3 -70 -37
-3 -38 -3 0 115 0 116 35 0 c26 0 35 -4 35 -17 0 -14 2 -15 18 -1 38 33 92 32
127 -2z"/>
<path d="M1717 1612 c-37 -41 -12 -106 38 -100 39 4 56 47 34 86 -18 33 -49
39 -72 14z"/>
<path d="M2428 1594 c-23 -50 38 -111 69 -68 16 22 17 66 1 82 -21 21 -57 14
-70 -14z"/>
<path d="M2906 1608 c-33 -47 -11 -102 39 -96 39 4 56 47 34 86 -19 35 -52 40
-73 10z"/>
</g>
</svg>
